<?xml version="1.0" encoding="UTF-8"?>
<svg width="210mm" height="297mm" version="1.1" viewBox="0 0 210 297" xmlns="http://www.w3.org/2000/svg" xmlns:cc="http://creativecommons.org/ns#" xmlns:dc="http://purl.org/dc/elements/1.1/" xmlns:rdf="http://www.w3.org/1999/02/22-rdf-syntax-ns#">
 <metadata>
  <rdf:RDF>
   <cc:Work rdf:about="">
    <dc:format>image/svg+xml</dc:format>
    <dc:type rdf:resource="http://purl.org/dc/dcmitype/StillImage"/>
    <dc:title/>
   </cc:Work>
  </rdf:RDF>
 </metadata>
 <g fill="#7bce5a"></g>
 <text font-family="Arial" font-size="10.583px" style="line-height:1.25;shape-inside:url(#rect2479);white-space:pre" xml:space="preserve"/>
 <text x="101.96333" y="94.479774" font-family="Arial" font-size="10.583px" stroke-width=".26458" style="line-height:1.25" xml:space="preserve"><tspan x="101.96333" y="94.479774" stroke-width=".26458"/></text>
 <g>
  <rect x="9.6433" y="15.095" width="192.31" height="125.35" fill="#426d5a"/>
  <rect x="15.525" y="22.926" width="180.62" height="110.98" fill="#d8e8cb"/>
  <rect x="9.6433" y="149.47" width="192.31" height="125.35" fill="#426d5a"/>
  <rect x="15.525" y="157.31" width="180.62" height="110.98" fill="#d8e8cb"/>
 </g>
 <g fill="#fff" stroke="#000">
  <rect x="103.94" y="46.526" width="84.377" height="60.43" stroke-width=".26458"/>
  <rect x="20.072" y="50.744" width="74.306" height="53.217" stroke-width=".233"/>
  <g stroke-width=".29735">
   <rect x="60.136" y="16.159" width="89.803" height="5.671"/>
   <rect x="60.403" y="134.25" width="89.803" height="5.671"/>
   <rect x="60.344" y="150.36" width="89.803" height="5.671"/>
   <rect x="60.318" y="268.82" width="89.803" height="5.671"/>
  </g>
 </g>
 <path d="m20.535 123.54 167.74 0.42898" fill="none" stroke="#000" stroke-width=".42899px"/>
 <path d="m46.459 23.927c-0.67259 0.99781-0.70315 1.7182-0.69996 2.8776-0.96922-0.1798-2.2981 0.71288-1.2444 1.6332 0.9745-1.9376 2.633 1.557 0.54441 1.3072-0.33986-0.0406-0.61962-0.25592-0.93328-0.37393-0.0327 0.21856-0.0796 0.4257-0.18797 0.62187-0.81616 1.4761-2.6239-0.69379-1.0566-1.1883 0.18876-0.0596 0.35846-0.0215 0.54457 0.0219-0.10375-1.2687-1.1452-1.5979-2.1777-1.011-0.17283-1.153-1.2154-1.5152-2.2554-1.3221 0.35524 0.66498 1.1885 1.1201 1.675 1.711 0.77761 0.94458 1.134 2.0247 1.436 3.1887 2.9827-0.70681 5.9022-1.0202 8.944-0.23332 0.24599-1.1886 0.75354-2.2829 1.5688-3.1887 0.44005-0.489 1.1696-0.89599 1.4644-1.4777-1.0247-0.19012-2.0842 0.18433-2.2554 1.3221-1.0443-0.66128-2.0142-0.19722-2.1777 1.011 0.18557-0.0426 0.35558-0.0806 0.54457-0.0258 1.6037 0.46582-0.24172 2.6856-1.0366 1.1922-0.1169-0.21958-0.17204-0.45638-0.20796-0.69965-0.22617 0.13937-0.44564 0.32683-0.69996 0.41196-0.17187 0.0576-0.36787 0.0639-0.54434 0.0239-1.7991-0.40581 0.18664-2.9768 0.85543-1.2914 1.1328-0.92107-0.31654-1.7504-1.2444-1.6332 0.0237-1.1502-3e-3 -1.8963-0.69996-2.8776h-0.15554m0.38887 7.4663v0.0779c0.52434 0.32361 0.99767 0.8359 1.5555 1.0898 0.83693 0.38077 1.6449 0.26715 2.4107 0.94673 0.74678 0.66272 0.7233 1.7029 1.3975 2.4347 0.41057 0.44556 1.8203 0.80629 2.4137 0.89518 0.10794-0.85397 0.23332-1.7044 0.23332-2.5665 0-0.26194 0.0732-0.66715-0.0799-0.89642-0.30246-0.45304-1.3704-0.70711-1.8644-0.88825-1.9414-0.71178-4.0014-1.093-6.0663-1.093m-8.7106 1.0111c0.76872 1.6736 3.2674 1.8607 4.822 1.4777v0.0779c-2.1049 0.81637-3.7503 0.75961-5.7552-0.23334l0.3111 0.77775c-0.81263-0.19314-1.5768-0.68987-2.0221-1.3999h-0.0778c0.30592 1.7767 1.5898 2.5828 3.1887 3.0332l-0.38887-0.93326c0.84702 0.66992 1.8035 1.0997 2.8776 1.2444v0.0779c-0.98045 0.18475-1.8144 0.20218-2.7998 0.0779 0.3131 0.43405 0.71278 0.65322 1.2444 0.69995-1.1305 1.1305-1.5651 2.3007-1.6332 3.8887l1.6332-1.711-0.38886 1.0888c1.2616-0.59669 2.3816-1.5184 3.8109-1.711-2.4512 2.6854-2.3434 5.8888-0.38887 8.7884h0.0778c-0.26217-2.0745 0.11182-4.2007 1.6332-5.7552l0.31109 1.2444c0.56409-0.91836 1.2413-1.9342 2.3332-2.2554-0.61658 1.5984-0.67771 3.133-0.54441 4.822l-0.62219-1.0111c-0.53601 0.89339-0.23122 2.51 0.12561 3.422 0.11627 0.29717 0.31148 0.88102 0.65936 0.97628 0.30962 0.0847 0.70323-0.33271 0.92605-0.49978 0.70012-0.52511 1.3262-1.1028 1.9443-1.7209 0.20772-0.20776 0.59691-0.47924 0.67305-0.77658 0.0876-0.34195-0.78481-0.83661-0.90637-1.2455l1.1666 0.38888-0.15554-0.31111c0.54752 0.26935 0.67951 0.93686 0.85551 1.4777 0.48546-0.35753 0.85138-0.92729 1.0888-1.4777h0.0778v0.31111h0.0778c0.56572-0.96937 0.29717-1.7727 0.46664-2.7999l-1.0111 0.1555 0.15555-0.31109c-0.36927-0.36662-0.57133-0.26807-1.0888-0.23331l0.23332-0.38886c0.50413 0.28487 1.0934-0.5081 1.4777-0.77775l0.0778 1.1666c1.201-0.40902 1.9449-1.4591 2.4272-2.5665 0.23402-0.53726 0.66846-0.9178 0.19933-1.4765-0.88265-1.0512-2.3348-0.9238-3.2962-1.6918-0.64707-0.5169-0.69412-1.261-1.079-1.8839-0.41842-0.67726-1.3206-1.0161-2.0623-1.1696l0.23332 0.62218c-0.96213-0.97007-2.0417-2.239-3.4998-2.3974-2.6536-0.2884-4.6906 2.0263-7.3885 0.91974m12.833 4.4331c0.9112 0.0398 1.9184 0.4374 2.7221 0.85403 0.45755 0.23712 0.83304 0.55421 0.62219 1.0903l-1.6332-0.23332v0.0779c0.5742 0.0957 1.282 1.0579 0.46547 1.3992-0.69405 0.29001-1.405-0.15529-2.0987-0.13464-0.85659 0.0256-1.5163 0.56752-2.2554 0.91307 0.3891-0.81803 1.114-1.5082 1.9443-1.8666v-0.0779c-0.91819 0.11679-1.4375 0.49589-2.1777 1.0111 0.13735-0.91625 0.83778-1.6887 1.7888-1.711v-0.0779c-0.82937-0.15399-3.1182 0.80923-3.1887-0.46665-0.31164 0.41338-0.24475 0.65796 0 1.0888l-1.2444 1.0111 0.15555-2.0999c-0.81468 0.24071-1.4846-0.13701-1.1666-1.011l-0.69996 0.31109 0.15555-0.54443c-0.35971 0.054-1.135 0.25612-1.1953 0.70113-0.0724 0.53439 0.95615 0.89168 1.3508 0.93213l-0.23332 1.3999c-0.37611-0.32354-0.38855-0.69677-0.38887-1.1666-1.0861-0.1112-1.9456-1.1525-0.93297-1.9857 0.93717-0.77114 2.3138-1.0467 3.4995-1.0474v-0.0779l-1.9443-0.62218c0.36453-0.15292 0.85162-0.0822 1.2444-0.0774 1.2836 0.0151 2.8316 0.33118 3.9664 0.94263 0.53321 0.2873 1.5933 0.71629 1.2444 1.468m-2.2554-0.6222v0.0779l0.46664 0.46666h1.0111c-0.42705-0.57856-0.82176-0.5725-1.4777-0.54443m5.5997 3.111c-0.0202 0.43515-0.13828 0.73815-0.54442 0.93329 0.0616-0.40919 0.21084-0.68487 0.54442-0.93329m-14.699 0.0779-0.0778 0.0779 0.0778-0.0779m12.288 1.0888-0.3111 0.54441h-0.0778v-0.62218l0.38887 0.0779m1.5555 0.31109-0.38886 0.46663v-0.5444l0.38886 0.0779m-12.91 0c-0.76888 0.40994-1.4746 0.9115-0.54442 1.711l0.54442-1.711m8.244 1.5555c0.71793 0.54544 1.4748 0.46666 2.3332 0.46666l-0.15555 0.23331h1.1666l-0.0778 1.2444-0.31109-0.1555-0.31109 0.85549h-0.0778c-0.38195-0.71573-0.96463-0.93186-1.6332-1.3221v0.38888c-0.5101-0.35939-1.144-1.0238-0.93327-1.711m-4.2775 2.0221c-0.9602 1.052-1.2644 2.427 0.0778 3.2665l-0.14856-1.9443z" fill="#426d5a"/>
 <path d="m105.54 158.6c-2.8518 4.2308-2.9814 7.2854-2.9679 12.201-4.1096-0.76237-9.7443 3.0227-5.2763 6.9251 4.132-8.2155 11.164 6.6018 2.3083 5.5427-1.441-0.17213-2.6272-1.0851-3.9572-1.5855-0.13865 0.92673-0.33752 1.805-0.79699 2.6368-3.4606 6.2586-11.126-2.9417-4.4799-5.0383 0.80036-0.25273 1.5199-0.0912 2.309 0.0928-0.43991-5.3796-4.8558-6.7752-9.2335-4.2869-0.73282-4.889-5.1535-6.4247-9.5632-5.606 1.5062 2.8196 5.0393 4.7493 7.102 7.2548 3.2971 4.0051 4.8084 8.5848 6.0887 13.52 12.647-2.9969 25.026-4.3259 37.923-0.98931 1.043-5.04 3.1951-9.6797 6.6517-13.52 1.8658-2.0734 4.9594-3.799 6.2092-6.2656-4.345-0.80613-8.8374 0.78157-9.5632 5.606-4.4281-2.8039-8.5403-0.83624-9.2334 4.2869 0.78683-0.18063 1.5077-0.34175 2.309-0.10937 6.7998 1.9751-1.0249 11.387-4.3951 5.0549-0.49567-0.93105-0.72948-1.9351-0.88178-2.9666-0.95897 0.59094-1.8895 1.3858-2.9679 1.7468-0.72874 0.24422-1.5598 0.27093-2.308 0.10137-7.6282-1.7207 0.79137-12.622 3.6271-5.4757 4.803-3.9054-1.3422-7.4218-5.2763-6.9251 0.10059-4.8768-0.0122-8.0404-2.9679-12.201h-0.65948m1.6488 31.658v0.3303c2.2233 1.3721 4.2302 3.5443 6.5953 4.6207 3.5486 1.6145 6.9745 1.1327 10.221 4.0142 3.1664 2.81 3.0668 7.2205 5.9255 10.323 1.7409 1.8892 7.7182 3.4187 10.234 3.7956 0.45767-3.6209 0.9893-7.2268 0.9893-10.882 0-1.1106 0.31037-2.8288-0.3388-3.8009-1.2824-1.9209-5.8108-2.9982-7.9052-3.7663-8.2316-3.018-16.966-4.6342-25.722-4.6342m-36.934 4.287c3.2594 7.0962 13.854 7.8893 20.445 6.2655v0.3303c-8.9249 3.4615-15.901 3.2208-24.403-0.98939l1.3191 3.2977c-3.4456-0.81894-6.6856-2.9251-8.5739-5.9358h-0.32987c1.2971 7.5335 6.7407 10.951 13.52 12.861l-1.6488-3.9571c3.5914 2.8405 7.6471 4.6628 12.201 5.2762v0.33031c-4.1572 0.78333-7.693 0.85724-11.872 0.33031 1.3276 1.8404 3.0223 2.7697 5.2762 2.9678-4.7933 4.7935-6.636 9.7552-6.9251 16.488l6.9251-7.2548-1.6488 4.6167c5.3492-2.53 10.098-6.4381 16.159-7.2549-10.393 11.386-9.9362 24.969-1.6488 37.264h0.32987c-1.1116-8.7961 0.47413-17.811 6.9251-24.403l1.3191 5.2762c2.3918-3.8939 5.2634-8.2009 9.893-9.5632-2.6143 6.7773-2.8735 13.284-2.3083 20.445l-2.6381-4.287c-2.2728 3.7881-0.98041 10.643 0.53258 14.51 0.493 1.26 1.3207 3.7356 2.7958 4.1395 1.3128 0.35912 2.9817-1.4107 3.9265-2.1191 2.9686-2.2265 5.6232-4.6758 8.2442-7.2967 0.88074-0.88092 2.5309-2.032 2.8538-3.2928 0.37143-1.4499-3.3277-3.5473-3.8431-5.2812l4.9465 1.6489-0.65952-1.3191c2.3216 1.142 2.8812 3.9724 3.6274 6.2656 2.0584-1.5159 3.6099-3.9318 4.6167-6.2656h0.32987v1.3191h0.32988c2.3987-4.1102 1.26-7.5163 1.9786-11.872l-4.287 0.65934 0.65954-1.3191c-1.5657-1.5545-2.4225-1.1366-4.6167-0.98923l0.98933-1.6488c2.1375 1.2079 4.6362-2.1544 6.2656-3.2977l0.32988 4.9465c5.0925-1.7343 8.2464-6.1868 10.292-10.882 0.99228-2.278 2.8343-3.8916 0.84519-6.2606-3.7425-4.4571-9.8996-3.917-13.976-7.1734-2.7436-2.1917-2.9431-5.3469-4.5748-7.9879-1.7741-2.8716-5.5994-4.3084-8.7444-4.9594l0.9893 2.6381c-4.0795-4.1132-8.657-9.4936-14.839-10.165-11.252-1.2228-19.888 8.5917-31.328 3.8998m54.411 18.797c3.8636 0.16874 8.1343 1.8546 11.542 3.6211 1.94 1.0054 3.5322 2.3499 2.6381 4.6229l-6.9251-0.9893v0.3303c2.4347 0.40579 5.4359 4.4855 1.9736 5.9329-2.9428 1.2297-5.9575-0.65844-8.8987-0.57087-3.632 0.10857-6.4291 2.4063-9.5632 3.8715 1.6498-3.4685 4.7232-6.3949 8.2442-7.9145v-0.3303c-3.8932 0.4952-6.0951 2.1026-9.2334 4.287 0.58237-3.885 3.5522-7.1601 7.5846-7.2548v-0.33033c-3.5166-0.65291-13.222 3.4312-13.52-1.9786-1.3214 1.7528-1.0378 2.7898 0 4.6167l-5.2763 4.287 0.65954-8.9037c-3.4543 1.0206-6.2949-0.58093-4.9465-4.2869l-2.9679 1.319 0.65954-2.3084c-1.5252 0.22896-4.8123 1.086-5.0682 2.9728-0.30699 2.2659 4.0541 3.7808 5.7277 3.9523l-0.9893 5.9358c-1.5947-1.3718-1.6475-2.9544-1.6488-4.9465-4.6052-0.47148-8.2495-4.8868-3.9559-8.4196 3.9737-3.2697 9.8106-4.438 14.838-4.4413v-0.33031l-8.2442-2.6381c1.5456-0.64839 3.6109-0.34853 5.2763-0.32818 5.4428 0.0641 12.006 1.4042 16.818 3.9968 2.2608 1.2182 6.7556 3.0371 5.2762 6.2246m-9.5632-2.6382v0.33031l1.9786 1.9786h4.287c-1.8107-2.4531-3.4843-2.4274-6.2656-2.3084m23.743 13.191c-0.0856 1.8451-0.58631 3.1298-2.3084 3.9573 0.2612-1.735 0.89399-2.9039 2.3084-3.9573m-62.326 0.33031-0.32989 0.33033 0.32989-0.33033m52.103 4.6167-1.3191 2.3083h-0.32987v-2.6381l1.6488 0.33032m6.5953 1.319-1.6488 1.9785v-2.3083l1.6488 0.3303m-54.741 0c-3.2601 1.7382-6.2524 3.8648-2.3084 7.2548l2.3084-7.2548m34.955 6.5953c3.0441 2.3127 6.2534 1.9787 9.893 1.9787l-0.65954 0.98925h4.9465l-0.32988 5.2763-1.319-0.65934-1.3191 3.6273h-0.32987c-1.6195-3.0347-4.0901-3.9511-6.9251-5.606v1.6489c-2.1629-1.5238-4.8508-4.3408-3.9571-7.2549m-18.137 8.574c-4.0713 4.4607-5.361 10.291 0.32987 13.85l-0.6299-8.2441z" fill="#fff"/>
 <g fill="#426d5a" font-family="Arial" font-weight="bold">
  <g font-size="4.511px" stroke-width=".11277">
   <text x="18.789082" y="236.33064" style="line-height:1.25" xml:space="preserve"><tspan x="18.789082" y="236.33064" fill="#426d5a" font-family="Arial" font-weight="bold" stroke-width=".11277">CELULAR:</tspan></text>
   <text x="18.931278" y="175.45845" style="line-height:1.25" xml:space="preserve"><tspan x="18.931278" y="175.45845" fill="#426d5a" font-family="Arial" font-weight="bold" stroke-width=".11277">NOME:</tspan></text>
   <text x="18.743809" y="164.60841" style="line-height:1.25" xml:space="preserve"><tspan x="18.743809" y="164.60841" fill="#426d5a" font-family="Arial" font-weight="bold" stroke-width=".11277">PLANO DE SAÚDE:</tspan></text>
   <text x="135.63229" y="164.60841" style="line-height:1.25" xml:space="preserve"><tspan x="135.63229" y="164.60841" fill="#426d5a" font-family="Arial" font-weight="bold" stroke-width=".11277">TIPO SANGUÍNIO:</tspan></text>
   <text x="18.930897" y="187.30482" style="line-height:1.25" xml:space="preserve"><tspan x="18.930897" y="187.30482" fill="#426d5a" font-family="Arial" font-weight="bold" stroke-width=".11277">EMAIL:</tspan></text>
   <text x="126.9345" y="188.24025" style="line-height:1.25" xml:space="preserve"><tspan x="126.9345" y="188.24025" fill="#426d5a" font-family="Arial" font-weight="bold" stroke-width=".11277">PESO:</tspan></text>
   <text x="154.65627" y="187.67787" style="line-height:1.25" xml:space="preserve"><tspan x="154.65627" y="187.67787" fill="#426d5a" font-family="Arial" font-weight="bold" stroke-width=".11277">ALTURA:</tspan></text>
   <text x="18.819294" y="202.14252" style="line-height:1.25" xml:space="preserve"><tspan x="18.819294" y="202.14252" fill="#426d5a" font-family="Arial" font-weight="bold" stroke-width=".11277">FILIAÇÃO:</tspan></text>
   <text x="19.098652" y="219.3822" style="line-height:1.25" xml:space="preserve"><tspan x="19.098652" y="219.3822" fill="#426d5a" font-family="Arial" font-weight="bold" stroke-width=".11277">ENDEREÇO:</tspan></text>
   <text x="18.717503" y="252.9231" style="line-height:1.25" xml:space="preserve"><tspan x="18.717503" y="252.9231" fill="#426d5a" font-family="Arial" font-weight="bold" stroke-width=".11277">PESSOA PRÓXIMA: </tspan></text>
   <text x="131.39508" y="201.60876" style="line-height:1.25" xml:space="preserve"><tspan x="131.39508" y="201.60876" fill="#426d5a" font-family="Arial" font-weight="bold" stroke-width=".11277">NASCIMENTO:</tspan></text>
   <text x="95.954475" y="236.05965" style="line-height:1.25" xml:space="preserve"><tspan x="95.954475" y="236.05965" fill="#426d5a" font-family="Arial" font-weight="bold" stroke-width=".11277">TELEFONE:</tspan></text>
   <text x="160.08186" y="175.64555" style="line-height:1.25" xml:space="preserve"><tspan x="160.08186" y="175.64555" fill="#426d5a" font-family="Arial" font-weight="bold" stroke-width=".11277">SEXO:</tspan></text>
   <text x="18.718464" y="264.87299" style="line-height:1.25" xml:space="preserve"><tspan x="18.718464" y="264.87299" fill="#426d5a" font-family="Arial" font-weight="bold" stroke-width=".11277">CELULAR:</tspan></text>
   <text x="95.509705" y="264.60199" style="line-height:1.25" xml:space="preserve"><tspan x="95.509705" y="264.60199" fill="#426d5a" font-family="Arial" font-weight="bold" stroke-width=".11277">TELEFONE:</tspan></text>
  </g>
  <text x="88.986923" y="42.407459" font-size="4.9166px" stroke-width=".12292" style="line-height:1.25" xml:space="preserve"><tspan x="88.986923" y="42.407459" fill="#426d5a" font-family="Arial" font-weight="bold" stroke-width=".12292">BRAVOSCAP</tspan></text>
  <text x="65.623711" y="35.217388" font-size="4.511px" stroke-width=".11277" style="line-height:1.25" xml:space="preserve"><tspan x="65.623711" y="35.217388" fill="#426d5a" font-family="Arial" font-weight="bold" stroke-width=".11277">SECRETARIA DO INSTITUTO CASA</tspan></text>
  <text x="81.77417" y="28.481424" font-size="4.9166px" stroke-width=".12292" style="line-height:1.25" xml:space="preserve"><tspan x="81.77417" y="28.481424" fill="#426d5a" font-family="Arial" font-weight="bold" stroke-width=".12292">DISTRITO FEDERAL</tspan></text>
  <g font-size="4.511px" stroke-width=".11277">
   <text x="76.79287" y="129.40717" style="line-height:1.25" xml:space="preserve"><tspan x="76.79287" y="129.40717" fill="#426d5a" font-family="Arial" font-weight="bold" stroke-width=".11277">ASSINATURA DO TITULAR</tspan></text>
   <text x="60.749634" y="138.89362" style="line-height:1.25" xml:space="preserve"><tspan x="60.749634" y="138.89362" fill="#426d5a" font-family="Arial" font-weight="bold" stroke-width=".11277">CAP - CASA DE ADORAÇÃO PROFÉTICA</tspan></text>
   <text x="60.930241" y="273.56653" style="line-height:1.25" xml:space="preserve"><tspan x="60.930241" y="273.56653" fill="#426d5a" font-family="Arial" font-weight="bold" stroke-width=".11277">CAP - CASA DE ADORAÇÃO PROFÉTICA</tspan></text>
   <text x="75.217751" y="20.62487" style="line-height:1.25" xml:space="preserve"><tspan x="75.217751" y="20.62487" fill="#426d5a" font-family="Arial" font-weight="bold" stroke-width=".11277">CARTEIRINHA DE MEMBRO</tspan></text>
   <text x="75.17347" y="154.80826" style="line-height:1.25" xml:space="preserve"><tspan x="75.17347" y="154.80826" fill="#426d5a" font-family="Arial" font-weight="bold" stroke-width=".11277">CARTEIRINHA DE MEMBRO</tspan></text>
  </g>
 </g>
</svg>
